<?xml version="1.0" encoding="UTF-8"?>
<svg width="128px" height="128px" viewBox="0 0 128 128" version="1.1" xmlns="http://www.w3.org/2000/svg" xmlns:xlink="http://www.w3.org/1999/xlink">
    <!-- Generator: Sketch 43.2 (39069) - http://www.bohemiancoding.com/sketch -->
    <title>03_final_128</title>
    <desc>Created with Sketch.</desc>
    <defs></defs>
    <g id="Page-1" stroke="none" stroke-width="1" fill="none" fill-rule="evenodd">
        <g id="03_final_128">
            <g id="7697">
                <rect id="bounds" x="0" y="0" width="128" height="128"></rect>
                <g id="hands" transform="translate(0.000000, 36.000000)" fill-rule="nonzero" fill="#D1D2D3">
                    <path d="M0,2 C0,13.045695 8.954305,22 20,22 C21.1045695,22 22,21.1045695 22,20 C22,18.8954305 21.1045695,18 20,18 C11.163444,18 4,10.836556 4,2 C4,0.8954305 3.1045695,0 2,0 C0.8954305,0 0,0.8954305 0,2 Z" id="Oval-2"></path>
                    <path d="M128,38 C128,26.954305 119.045695,18 108,18 C106.895431,18 106,18.8954305 106,20 C106,21.1045695 106.895431,22 108,22 C116.836556,22 124,29.163444 124,38 C124,39.1045695 124.895431,40 126,40 C127.104569,40 128,39.1045695 128,38 Z" id="Oval-2"></path>
                </g>
                <g id="platform" transform="translate(24.000000, 8.000000)">
                    <g id="bg" transform="translate(0.000000, 4.000000)">
                        <path d="M0,74 L0,0 L80,0 L80,74 L0,74 Z M17.8103784,47.7027027 C17.8103784,48.3881081 18.3660541,48.9437838 19.0514595,48.9437838 C19.7368649,48.9437838 20.2925405,48.3881081 20.2925405,47.7027027 C20.2925405,47.0172973 19.7368649,46.4627027 19.0514595,46.4627027 C18.3660541,46.4627027 17.8103784,47.0172973 17.8103784,47.7027027 Z M17.8103784,40.6883243 C17.8103784,41.3748108 18.3660541,41.9294054 19.0514595,41.9294054 C19.7368649,41.9294054 20.2925405,41.3748108 20.2925405,40.6883243 C20.2925405,40.0029189 19.7368649,39.4483243 19.0514595,39.4483243 C18.3660541,39.4483243 17.8103784,40.0029189 17.8103784,40.6883243 Z" id="Combined-Shape" fill="#44AF35"></path>
                        <g id="Group-6" transform="translate(16.216216, 38.081081)" fill="#ECB74D">
                            <path d="M1.59416216,2.60724324 C1.59416216,1.92183784 2.14983784,1.36724324 2.83524324,1.36724324 C3.52064865,1.36724324 4.07632432,1.92183784 4.07632432,2.60724324 C4.07632432,3.29372973 3.52064865,3.84832432 2.83524324,3.84832432 C2.14983784,3.84832432 1.59416216,3.29372973 1.59416216,2.60724324 M5.36497297,2.60724324 C5.36497297,1.21048649 4.232,0.0775135135 2.83524324,0.0775135135 C1.43740541,0.0775135135 0.305513514,1.21048649 0.305513514,2.60724324 C0.305513514,4.00508108 1.43740541,5.13697297 2.83524324,5.13697297 C4.232,5.13697297 5.36497297,4.00508108 5.36497297,2.60724324" id="Fill-334"></path>
                            <path d="M1.59416216,9.62162162 C1.59416216,8.93621622 2.14983784,8.38162162 2.83524324,8.38162162 C3.52064865,8.38162162 4.07632432,8.93621622 4.07632432,9.62162162 C4.07632432,10.307027 3.52064865,10.8627027 2.83524324,10.8627027 C2.14983784,10.8627027 1.59416216,10.307027 1.59416216,9.62162162 L1.59416216,9.62162162 Z M0.305513514,12.1513514 L5.36497297,12.1513514 L5.36497297,7.09189189 L0.305513514,7.09189189 L0.305513514,12.1513514 Z" id="Fill-336"></path>
                        </g>
                    </g>
                    <g id="usb" transform="translate(28.000000, 0.000000)">
                        <g id="Group-25" transform="translate(8.500000, 16.000000)" fill="#F1F2F2">
                            <rect id="Rectangle-5" x="0" y="0" width="1" height="2.5"></rect>
                            <rect id="Rectangle-5" x="2" y="0" width="1" height="2.5"></rect>
                            <rect id="Rectangle-5" x="4" y="0" width="1" height="2.5"></rect>
                            <rect id="Rectangle-5" x="6" y="0" width="1" height="2.5"></rect>
                        </g>
                        <path d="M23.9041143,0.00166109033 L21.9429868,0.281066192 L11.9997636,0.281066192 L2.05654036,0.281066192 L0.096471237,0.00166109033 C0.0139197297,-0.0099807889 -0.0220642606,0.0408201387 0.0139197297,0.114904825 L0.851076682,1.78286861 L0.851076682,16.6495484 C0.851076682,16.7331583 0.918811252,16.8008928 1.00136276,16.8008928 L11.9997636,16.8008928 L22.9992227,16.8008928 C23.0817743,16.8008928 23.1495088,16.7331583 23.1495088,16.6495484 L23.1495088,1.78286861 L23.9856074,0.114904825 C24.0226498,0.0408201387 23.9856074,-0.0099807889 23.9041143,0.00166109033" id="Fill-30" fill="#D1D2D3"></path>
                        <g id="Group-24" transform="translate(6.000000, 14.000000)" fill="#B3B3B3">
                            <path d="M12,2.80089283 L9.5,2.80089283 L9.5,0 L12,0 L12,2.80089283 Z" id="Combined-Shape"></path>
                            <path d="M2.5,2.80089283 L-4.4408921e-16,2.80089283 L0,0 L2.5,0 L2.5,2.80089283 Z" id="Combined-Shape"></path>
                        </g>
                        <g id="Group-22" transform="translate(5.000000, 3.000000)" fill="#4D4D4D">
                            <g id="Group-23">
                                <rect id="Rectangle-6" x="0" y="0" width="2" height="6"></rect>
                                <rect id="Rectangle-6" x="12" y="0" width="2" height="6"></rect>
                            </g>
                        </g>
                    </g>
                    <g id="led" transform="translate(5.000000, 6.000000)" fill="#F1F2F2">
                        <polygon id="Fill-24" points="0 6 3 6 3 0 0 0"></polygon>
                        <polygon id="Fill-24" points="10 6 13 6 13 0 10 0"></polygon>
                        <polygon id="Fill-24" points="57 6 60 6 60 0 57 0"></polygon>
                        <polygon id="Fill-24" points="67 6 70 6 70 0 67 0"></polygon>
                    </g>
                    <g id="btn" transform="translate(5.000000, 18.000000)">
                        <path d="M0,0.997544646 C0,0.446615951 0.447489426,0 0.998502329,0 L12.0014977,0 C12.5529553,0 13,0.446311399 13,0.997544646 L13,8.00245535 C13,8.55338405 12.5525106,9 12.0014977,9 L0.998502329,9 C0.44704472,9 0,8.5536886 0,8.00245535 L0,0.997544646 Z" id="Combined-Shape" fill="#D1D2D3"></path>
                        <path d="M2,4.5 C2,2.56700338 3.56768036,1 5.50540578,1 L7.49459422,1 C9.43057637,1 11,2.57093664 11,4.5 C11,6.43299662 9.43231964,8 7.49459422,8 L5.50540578,8 C3.56942363,8 2,6.42906336 2,4.5 Z" id="Combined-Shape" fill="#303030"></path>
                    </g>
                    <g id="btn" transform="translate(62.000000, 18.000000)">
                        <path d="M0,0.997544646 C0,0.446615951 0.447489426,0 0.998502329,0 L12.0014977,0 C12.5529553,0 13,0.446311399 13,0.997544646 L13,8.00245535 C13,8.55338405 12.5525106,9 12.0014977,9 L0.998502329,9 C0.44704472,9 0,8.5536886 0,8.00245535 L0,0.997544646 Z" id="Combined-Shape" fill="#D1D2D3"></path>
                        <path d="M2,4.5 C2,2.56700338 3.56768036,1 5.50540578,1 L7.49459422,1 C9.43057637,1 11,2.57093664 11,4.5 C11,6.43299662 9.43231964,8 7.49459422,8 L5.50540578,8 C3.56942363,8 2,6.42906336 2,4.5 Z" id="Combined-Shape" fill="#303030"></path>
                    </g>
                    <g id="pin" transform="translate(2.000000, 30.000000)" fill="#B8AF82">
                        <g id="Group-3">
                            <path d="M5,2.5 C5,1.11858974 3.88034188,0 2.5,0 C1.11965812,0 0,1.11858974 0,2.5 C0,3.88034188 1.11965812,5 2.5,5 C3.88034188,5 5,3.88034188 5,2.5" id="Fill-178"></path>
                            <path d="M5,10.5 C5,9.11858974 3.88034188,8 2.5,8 C1.11965812,8 0,9.11858974 0,10.5 C0,11.8803419 1.11965812,13 2.5,13 C3.88034188,13 5,11.8803419 5,10.5" id="Fill-178"></path>
                            <path d="M5,18.5 C5,17.1185897 3.88034188,16 2.5,16 C1.11965812,16 0,17.1185897 0,18.5 C0,19.8803419 1.11965812,21 2.5,21 C3.88034188,21 5,19.8803419 5,18.5" id="Fill-178"></path>
                            <path d="M5,26.5 C5,25.1185897 3.88034188,24 2.5,24 C1.11965812,24 0,25.1185897 0,26.5 C0,27.8803419 1.11965812,29 2.5,29 C3.88034188,29 5,27.8803419 5,26.5" id="Fill-178"></path>
                            <path d="M5,34.5 C5,33.1185897 3.88034188,32 2.5,32 C1.11965812,32 0,33.1185897 0,34.5 C0,35.8803419 1.11965812,37 2.5,37 C3.88034188,37 5,35.8803419 5,34.5" id="Fill-178"></path>
                        </g>
                        <g id="Group-3" transform="translate(71.000000, 0.000000)">
                            <path d="M5,2.5 C5,1.11858974 3.88034188,0 2.5,0 C1.11965812,0 0,1.11858974 0,2.5 C0,3.88034188 1.11965812,5 2.5,5 C3.88034188,5 5,3.88034188 5,2.5" id="Fill-178"></path>
                            <path d="M5,10.5 C5,9.11858974 3.88034188,8 2.5,8 C1.11965812,8 0,9.11858974 0,10.5 C0,11.8803419 1.11965812,13 2.5,13 C3.88034188,13 5,11.8803419 5,10.5" id="Fill-178"></path>
                            <path d="M5,18.5 C5,17.1185897 3.88034188,16 2.5,16 C1.11965812,16 0,17.1185897 0,18.5 C0,19.8803419 1.11965812,21 2.5,21 C3.88034188,21 5,19.8803419 5,18.5" id="Fill-178"></path>
                            <path d="M5,26.5 C5,25.1185897 3.88034188,24 2.5,24 C1.11965812,24 0,25.1185897 0,26.5 C0,27.8803419 1.11965812,29 2.5,29 C3.88034188,29 5,27.8803419 5,26.5" id="Fill-178"></path>
                            <path d="M5,34.5 C5,33.1185897 3.88034188,32 2.5,32 C1.11965812,32 0,33.1185897 0,34.5 C0,35.8803419 1.11965812,37 2.5,37 C3.88034188,37 5,35.8803419 5,34.5" id="Fill-178"></path>
                        </g>
                    </g>
                    <g id="chip" transform="translate(32.000000, 47.000000)">
                        <polygon id="Fill-324" fill="#303030" points="2 13.9989417 14 13.9989417 14 2 2 2"></polygon>
                        <g id="Group-15" transform="translate(4.000000, 0.500000)" fill="#F1F2F2">
                            <polygon id="Fill-24" points="0 1.5 1 1.5 1 0 0 0"></polygon>
                            <polygon id="Fill-24" points="1.4 1.5 2.4 1.5 2.4 0 1.4 0"></polygon>
                            <polygon id="Fill-24" points="2.8 1.5 3.8 1.5 3.8 0 2.8 0"></polygon>
                            <polygon id="Fill-24" points="4.2 1.5 5.2 1.5 5.2 0 4.2 0"></polygon>
                            <polygon id="Fill-24" points="5.6 1.5 6.6 1.5 6.6 0 5.6 0"></polygon>
                            <polygon id="Fill-24" points="7 1.5 8 1.5 8 0 7 0"></polygon>
                        </g>
                        <g id="Group-15" transform="translate(14.750000, 7.750000) rotate(90.000000) translate(-14.750000, -7.750000) translate(10.750000, 7.000000)" fill="#F1F2F2">
                            <polygon id="Fill-24" points="0 1.5 1 1.5 1 0 0 0"></polygon>
                            <polygon id="Fill-24" points="1.4 1.5 2.4 1.5 2.4 0 1.4 0"></polygon>
                            <polygon id="Fill-24" points="2.8 1.5 3.8 1.5 3.8 0 2.8 0"></polygon>
                            <polygon id="Fill-24" points="4.2 1.5 5.2 1.5 5.2 0 4.2 0"></polygon>
                            <polygon id="Fill-24" points="5.6 1.5 6.6 1.5 6.6 0 5.6 0"></polygon>
                            <polygon id="Fill-24" points="7 1.5 8 1.5 8 0 7 0"></polygon>
                        </g>
                        <g id="Group-15" transform="translate(1.250000, 7.750000) rotate(90.000000) translate(-1.250000, -7.750000) translate(-2.750000, 7.000000)" fill="#F1F2F2">
                            <polygon id="Fill-24" points="0 1.5 1 1.5 1 0 0 0"></polygon>
                            <polygon id="Fill-24" points="1.4 1.5 2.4 1.5 2.4 0 1.4 0"></polygon>
                            <polygon id="Fill-24" points="2.8 1.5 3.8 1.5 3.8 0 2.8 0"></polygon>
                            <polygon id="Fill-24" points="4.2 1.5 5.2 1.5 5.2 0 4.2 0"></polygon>
                            <polygon id="Fill-24" points="5.6 1.5 6.6 1.5 6.6 0 5.6 0"></polygon>
                            <polygon id="Fill-24" points="7 1.5 8 1.5 8 0 7 0"></polygon>
                        </g>
                        <g id="Group-15" transform="translate(4.000000, 14.000000)" fill="#F1F2F2">
                            <polygon id="Fill-24" points="0 1.5 1 1.5 1 0 0 0"></polygon>
                            <polygon id="Fill-24" points="1.4 1.5 2.4 1.5 2.4 0 1.4 0"></polygon>
                            <polygon id="Fill-24" points="2.8 1.5 3.8 1.5 3.8 0 2.8 0"></polygon>
                            <polygon id="Fill-24" points="4.2 1.5 5.2 1.5 5.2 0 4.2 0"></polygon>
                            <polygon id="Fill-24" points="5.6 1.5 6.6 1.5 6.6 0 5.6 0"></polygon>
                            <polygon id="Fill-24" points="7 1.5 8 1.5 8 0 7 0"></polygon>
                        </g>
                    </g>
                </g>
                <g id="logo" transform="translate(0.000000, 80.000000)">
                    <path d="M18.3793997,35.8622434 L2.9938736,35.8622434 C1.34040287,35.8622434 0,34.5218529 0,32.8663316 L0,2.99591178 C0,1.34131539 1.35148115,0 2.9938736,0 L18.3793997,0 L23.834829,3.89673517 C24.2879584,4.22039903 25.0198375,4.222391 25.4757557,3.89673517 L30.9311849,0 L128,0 L128,35.8622434 L30.9311849,35.8622434 L25.4757557,39.7589786 C25.0226263,40.0826424 24.2907472,40.0846344 23.834829,39.7589786 L18.3793997,35.8622434 Z" id="Combined-Shape" fill="#F39A1E"></path>
                    <path d="M2.9938736,3 C3.00028429,2.99932385 3,32.8622434 3,32.8622434 L19.3407949,32.8622434 L24.6552923,36.658313 L29.9697898,32.8622434 L125,32.8622434 L125,3 L31.8925801,3 L27.2194703,6.33793559 C25.7205983,7.40855845 23.5874794,7.40676769 22.0911144,6.33793559 L17.4180046,3 L2.9938736,3 Z M18.3793997,35.8622434 L2.9938736,35.8622434 C1.34040287,35.8622434 0,34.5218529 0,32.8663316 L0,2.99591178 C0,1.34131539 1.35148115,0 2.9938736,0 L18.3793997,0 L23.834829,3.89673517 C24.2879584,4.22039903 25.0198375,4.222391 25.4757557,3.89673517 L30.9311849,0 L128,0 L128,35.8622434 L30.9311849,35.8622434 L25.4757557,39.7589786 C25.0226263,40.0826424 24.2907472,40.0846344 23.834829,39.7589786 L18.3793997,35.8622434 Z" id="Combined-Shape" fill-opacity="0.5" fill="#FFFFFF" fill-rule="nonzero"></path>
                    <path d="M29.22,25.62 L23,25.62 L25.24,11.48 L31.34,11.48 C34.04,11.48 35.72,12.28 35.72,14.5 C35.72,15.96 35.08,17.6 33.26,18.28 C34.54,18.72 35.1,19.66 35.1,21 C35.1,23.82 33.5,25.62 29.22,25.62 Z M26.64,23.16 L29.12,23.16 C31.34,23.16 31.88,22.22 31.88,20.98 C31.88,19.98 31.26,19.54 29.64,19.54 L27.2,19.54 L26.64,23.16 Z M27.54,17.46 L29.9,17.46 C31.72,17.46 32.52,16.66 32.52,15.28 C32.52,14.3 31.88,13.92 30.46,13.92 L28.1,13.92 L27.54,17.46 Z M43.8622223,23.04 C43.5222223,23.14 43.1622223,23.22 42.8222223,23.22 C42.1222223,23.22 41.9622223,23.04 41.9622223,22.42 C41.9622223,22.32 41.9822223,22.08 41.9822223,22.08 L43.7222223,11 L40.6022223,11 L38.7422223,22.86 C38.7022223,23.1 38.6822223,23.32 38.6822223,23.52 C38.6822223,25.02 39.6422223,25.84 41.3622223,25.84 C42.5422223,25.84 43.2222223,25.56 43.6222223,25.4 L43.8622223,23.04 Z M51.8244447,25.82 C48.9644447,25.78 47.2644447,24.24 47.2644447,21.52 C47.2644447,17.64 49.6444447,14.86 53.4644447,14.86 C56.4444447,14.86 58.1644447,16.4 58.1644447,19.14 C58.1644447,23.16 55.8644447,25.82 51.8244447,25.82 Z M52.1644447,23.22 C53.9044447,23.22 55.0444447,21.84 55.0444447,19.52 C55.0444447,18.08 54.4244447,17.44 53.2644447,17.44 C51.5644447,17.44 50.3644447,18.76 50.3644447,21.16 C50.3644447,22.6 50.9844447,23.2 52.1644447,23.22 Z M69.506667,22.86 C68.866667,23.02 67.766667,23.18 66.886667,23.18 C65.566667,23.18 64.606667,22.64 64.606667,20.92 C64.606667,18.56 66.166667,17.56 67.906667,17.56 C68.746667,17.56 69.746667,17.8 70.366667,17.98 L70.946667,15.34 C70.426667,15.2 69.086667,14.9 67.806667,14.9 C63.966667,14.9 61.466667,17.48 61.466667,21.46 C61.466667,24.24 63.026667,25.84 66.166667,25.84 C67.366667,25.84 68.626667,25.62 69.166667,25.5 L69.506667,22.86 Z M81.2288893,15.08 C81.0888893,16.38 79.6088893,18.52 78.9488893,18.94 C78.5488893,19.12 77.9288893,19.18 77.4688893,19.26 L78.7888893,11 L75.6688893,11 L73.3488893,25.62 L76.4688893,25.62 L77.0888893,21.68 L78.3488893,21.68 C78.3488893,21.68 79.8088893,25.38 79.9088893,25.62 L83.2488893,25.62 L81.2688893,20.52 C82.3488893,19.54 84.2488893,17.04 84.4088893,15.08 L81.2288893,15.08 Z M92.3311116,23.04 C91.9911116,23.14 91.6311116,23.22 91.2911116,23.22 C90.5911116,23.22 90.4311116,23.04 90.4311116,22.42 C90.4311116,22.32 90.4511116,22.08 90.4511116,22.08 L92.1911116,11 L89.0711116,11 L87.2111116,22.86 C87.1711116,23.1 87.1511116,23.32 87.1511116,23.52 C87.1511116,25.02 88.1111116,25.84 89.8311116,25.84 C91.0111116,25.84 91.6911116,25.56 92.0911116,25.4 L92.3311116,23.04 Z M93.493334,29.62 C94.213334,29.82 94.913334,29.92 95.533334,29.92 C98.253334,29.92 99.573334,27.72 100.873334,25.66 C101.573334,24.56 105.833334,17.66 105.833334,15.16 L105.833334,15.08 L102.673334,15.08 C102.653334,16.7 100.693334,21.1 99.733334,22.92 L99.653334,20.6 L99.053334,15.08 L95.673334,15.08 L97.753334,25.58 C97.273334,26.66 96.433334,27.4 95.393334,27.4 C94.873334,27.4 94.333334,27.28 94.013334,27.12 L93.493334,29.62 Z" id="Blockly" fill="#FFFFFF"></path>
                </g>
            </g>
        </g>
    </g>
</svg>